<svg id="Layer_2" data-name="Layer 2" xmlns="http://www.w3.org/2000/svg" viewBox="0 0 44 44"><defs><style>.cls-1{fill:#01247d;}.cls-2{fill:#fff;}.cls-3{fill:#cf142b;}</style></defs><title>Flags</title><path class="cls-1" d="M1.68,13.55c-.25.6-.48,1.22-.68,1.85H4.46Z"/><path class="cls-1" d="M42.3,30.48c.26-.61.49-1.24.69-1.88H39.48Z"/><path class="cls-1" d="M6.39,37.5a22,22,0,0,0,9,5.49V31.49Z"/><path class="cls-1" d="M15.4,1a22,22,0,0,0-9,5.52l9,6Z"/><path class="cls-1" d="M43,15.4c-.2-.63-.42-1.25-.68-1.85L39.54,15.4Z"/><path class="cls-1" d="M28.6,43a22,22,0,0,0,9-5.49l-9-6Z"/><path class="cls-1" d="M1,28.6q.3,1,.69,1.88L4.52,28.6Z"/><path class="cls-1" d="M37.63,6.53A22,22,0,0,0,28.6,1V12.55Z"/><path class="cls-2" d="M43.66,25.85H25.85V43.66A22.26,22.26,0,0,0,28.6,43V31.49l9,6a21.92,21.92,0,0,0,2.74-3.37L32,28.6h5.23l4.53,3c.18-.37.35-.75.51-1.13L39.48,28.6H43A21.7,21.7,0,0,0,43.66,25.85Z"/><path class="cls-2" d="M15.4,1V12.55l-9-6A21.92,21.92,0,0,0,3.69,9.8l8.42,5.6H6.89L2.25,12.31q-.3.61-.56,1.24L4.46,15.4H1a21.85,21.85,0,0,0-.67,2.75H18.15V.34A21.82,21.82,0,0,0,15.4,1Z"/><path class="cls-2" d="M.34,25.85A21.85,21.85,0,0,0,1,28.6H4.52L1.7,30.48a22.15,22.15,0,0,0,2,3.65L12,28.6H15.4v1.19l-10,6.64c.32.36.64.72,1,1.06l9-6V43a22.13,22.13,0,0,0,2.75.67V25.85Z"/><path class="cls-2" d="M43,15.4H39.54l2.78-1.85a22,22,0,0,0-2-3.77L31.85,15.4H28.6V14.09l9.93-6.6c-.29-.33-.58-.65-.89-1l-9,6V1A21.94,21.94,0,0,0,25.85.34V18.15H43.66A21.69,21.69,0,0,0,43,15.4Z"/><path class="cls-3" d="M43.66,18.15H25.85V.34a21.84,21.84,0,0,0-7.7,0V18.15H.34a21.78,21.78,0,0,0,0,7.7H18.15V43.66a21.78,21.78,0,0,0,7.7,0V25.85H43.66a21.68,21.68,0,0,0,0-7.7Z"/><path class="cls-3" d="M32,28.6l8.31,5.53a22.22,22.22,0,0,0,1.44-2.52l-4.53-3Z"/><path class="cls-3" d="M28.6,15.4h3.25l8.44-5.62a22.26,22.26,0,0,0-1.77-2.3l-9.93,6.6Z"/><path class="cls-3" d="M15.4,28.6H12L3.65,34.14a22.05,22.05,0,0,0,1.76,2.3l10-6.64Z"/><path class="cls-3" d="M12.11,15.4,3.69,9.8a21.92,21.92,0,0,0-1.45,2.51L6.89,15.4Z"/></svg>